<svg width="118" height="167" viewBox="0 0 118 167" fill="none" xmlns="http://www.w3.org/2000/svg">
<path d="M29.7425 166.315L0.243645 116.849V76.3773C0.243645 76.3773 40.2429 25.912 66.2412 14.4203C92.2395 2.92853 115.24 -7.56478 117.739 7.42511C120.239 22.415 102.741 43.8995 102.741 43.8995C102.741 43.8995 93.7409 77.3763 89.741 83.8717C85.7412 90.3672 63.2413 89.8679 63.2413 89.8679L81.2406 102.859C81.2406 102.859 97.74 125.343 77.2408 148.827C56.7415 172.311 29.7425 166.315 29.7425 166.315Z" fill="black"/>
<path d="M32.2438 158.062L3.24368 115.761V79.6185C3.24368 79.6185 40.2439 34.2786 55.3738 24.2888C70.5038 14.2989 111.77 -5.9522 113.744 7.43427C115.718 20.8207 98.7438 38.2558 98.7438 38.2558C98.7438 38.2558 89.4032 72.722 86.2438 78.5227C83.0844 84.3234 56.2439 87.4706 56.2439 87.4706L70.744 102.881C70.744 102.881 88.936 125.159 72.744 146.131C56.5521 167.103 32.2438 158.062 32.2438 158.062Z" fill="#E55F00"/>
<path d="M21.3446 136.778L2.99999 110.104V87.3136C2.99999 87.3136 26.4051 58.7235 35.9759 52.4241C45.5466 46.1248 71.65 33.355 72.8989 41.7961C74.1478 50.2373 67.5 60.5 67.5 60.5C67.5 60.5 62.9985 72.3422 61 76C59.0015 79.6578 38.5 87.3136 38.5 87.3136L45.6986 101.983C45.6986 101.983 57.2062 116.03 46.9637 129.255C36.7212 142.479 21.3446 136.778 21.3446 136.778Z" fill="#FFB825"/>
</svg>
