<svg width="118" height="168" viewBox="0 0 118 168" fill="none" xmlns="http://www.w3.org/2000/svg">
<path d="M88.2444 167L117.744 117.5V77.0004C117.744 77.0004 77.7437 26.5 51.7444 15.0003C25.7451 3.50063 2.74403 -6.99996 0.244391 8.00033C-2.25524 23.0006 15.2436 44.5 15.2436 44.5C15.2436 44.5 24.2437 78 28.2437 84.5C32.2437 91 54.7444 90.5004 54.7444 90.5004L36.7444 103.5C36.7444 103.5 20.2444 126 40.7444 149.5C61.2444 173 88.2444 167 88.2444 167Z" fill="black"/>
<path d="M86.2433 159.5L115.243 116.954V80.6021C115.243 80.6021 78.2433 34.9998 63.1134 24.9521C47.9836 14.9044 6.71797 -5.46399 4.74364 7.99998C2.76932 21.464 19.7437 39 19.7437 39C19.7437 39 29.0843 73.6657 32.2437 79.5C35.403 85.3343 62.2433 88.4998 62.2433 88.4998L47.7433 104C47.7433 104 29.5515 126.407 45.7433 147.5C61.9352 168.593 86.2433 159.5 86.2433 159.5Z" fill="#081A7E"/>
<path d="M96.6554 136.778L115 110.104V87.3136C115 87.3136 91.5949 58.7235 82.0241 52.4241C72.4534 46.1248 46.35 33.355 45.1011 41.7961C43.8522 50.2373 54.5896 61.2314 54.5896 61.2314C54.5896 61.2314 60.0015 74.3422 62 78C63.9985 81.6578 79.5 87.3136 79.5 87.3136L72.3014 101.983C72.3014 101.983 60.7938 116.03 71.0363 129.255C81.2788 142.479 96.6554 136.778 96.6554 136.778Z" fill="#0AA7E5"/>
</svg>
