<svg width="584" height="584" viewBox="0 0 584 584" fill="none" xmlns="http://www.w3.org/2000/svg">
<circle cx="292" cy="292" r="292" fill="#F9E2C1"/>
<path d="M175.547 461.916C231.497 502.431 318.316 502.431 318.316 502.431C318.316 502.431 223.139 491.638 178.12 455.485C109.254 400.181 78.6551 306.929 103.52 241.975C146.357 130.076 225.066 128.79 252.077 130.076C279.087 131.362 275.86 103.145 275.86 103.145C275.86 103.145 270.083 78.2442 239.858 82.4864C209.632 86.7287 111.237 119.786 86.7995 236.188C62.3615 352.589 119.597 421.401 175.547 461.916Z" fill="#3D4538"/>
<path d="M196.77 265.127C196.77 265.127 198.797 260.939 203.043 254.892C219.357 230.545 266.823 173.248 337.609 201.46C426.357 236.83 401.919 330.723 401.919 330.723C401.919 330.723 421.855 253.551 328.606 219.467C256.726 193.194 217.327 234.555 203.043 254.892C198.904 261.07 196.77 265.127 196.77 265.127Z" fill="#3D4538"/>
<path d="M468.802 377.67C376.838 514.475 228.282 419.472 228.282 419.472C228.282 419.472 356.259 497.93 445.007 362.879C533.755 227.827 440.505 146.797 440.505 146.797C440.505 146.797 560.765 240.865 468.802 377.67Z" fill="#3D4538"/>
</svg>
