<svg width="269" height="200" viewBox="0 0 269 200" fill="none" xmlns="http://www.w3.org/2000/svg">
<path d="M133 123C125.5 148 87.5 198 87.5 198H105.5L154 114.5C154 114.5 194.5 142 235 127C275.5 112 266 70 266 70C266 70 257 80 246 79.5C235 78.9999 213.007 70.5247 193 76C174.351 81.1036 151.5 103 151.5 103L153 67.5C153 67.5 149 27 93 7.99995C37 -11.0001 2 18 2 18C2 18 43.5 94 87.5 94C131.5 94 140.5 70 140.5 70C140.5 70 140.5 98 133 123Z" fill="#D0E0C6" stroke="#606C3C" stroke-width="3"/>
</svg>
