<svg width="406" height="305" viewBox="0 0 406 305" fill="none" xmlns="http://www.w3.org/2000/svg">
<circle cx="212" cy="158" r="79" fill="#D5B495"/>
<path d="M225.882 302.611C170.882 311.111 197.382 224.611 197.382 224.611C197.382 224.611 206.462 225.197 213.882 224.611C221.302 224.025 234.5 221 234.5 221C234.5 221 280.882 294.111 225.882 302.611Z" fill="#FDE88B" stroke="#83684D" stroke-width="2"/>
<path d="M339.128 65.2409C370.24 111.385 278.882 117.611 278.882 117.611C278.882 117.611 271.882 107.611 262.382 98.6108C254.033 90.7014 244.882 87.6108 244.882 87.6108C244.882 87.6108 308.016 19.0966 339.128 65.2409Z" fill="#FDE88B" stroke="#83684D" stroke-width="2"/>
<path d="M283.382 284.611C250.842 294.443 233.5 221.5 233.5 221.5C233.5 221.5 262 214.111 275 188.5C287.997 162.896 278.882 117.111 278.882 117.111C278.882 117.111 297.221 102.373 317.382 103.111C339.537 103.922 363.788 120.88 365.882 137.111C369.882 168.111 333.036 162.111 333.036 162.111C333.036 162.111 362.382 181.611 355.382 214.111C348.382 246.611 310.696 238.611 310.696 238.611C310.696 238.611 315.922 274.778 283.382 284.611Z" fill="#FDE88B" stroke="#83684D" stroke-width="2"/>
<path d="M329.882 106.111C302.882 97.1109 279.882 117.611 279.882 117.611L283.882 129.611L286.382 143.111C286.382 143.111 299.382 133.611 320.882 129.611C342.382 125.611 362.882 131.111 362.882 131.111C362.882 131.111 356.882 115.111 329.882 106.111Z" fill="white" fill-opacity="0.25"/>
<path d="M134.395 283.244C180.315 314.684 197.364 223.604 197.364 223.604C197.364 223.604 186.02 220.479 179.582 216.743C173.145 213.008 164.395 204.472 164.395 204.472C164.395 204.472 88.4744 251.804 134.395 283.244Z" fill="#FDE88B" stroke="#83684D" stroke-width="2"/>
<path d="M134.89 20.2448C86.8879 48.4058 166.576 93.5118 166.576 93.5118C166.576 93.5118 177.211 87.5204 189.668 83.5114C200.616 79.9882 208 80 208 80C208 80 182.892 -7.91623 134.89 20.2448Z" fill="#FDE88B" stroke="#83684D" stroke-width="2"/>
<path d="M264 21.0001C212.372 0.22127 206 78.9999 206 78.9999C206 78.9999 213.592 78.3486 226.5 80.5C238.5 82.5 246 86.4999 246 86.4999C246 86.4999 315.628 41.7789 264 21.0001Z" fill="#FDE88B" stroke="#83684D" stroke-width="2"/>
<path d="M90.3267 242.157C115.418 265.089 164.395 204.472 164.395 204.472C164.395 204.472 141.31 180.007 138.128 159C133.827 130.61 166.792 93.0611 166.792 93.0611C166.792 93.0611 156.626 71.8435 138.128 63.7938C117.799 54.9476 88.6013 59.7566 79.6965 73.4871C62.6887 99.7118 98.5073 110.229 98.5073 110.229C98.5073 110.229 63.6158 115.127 55.8786 147.46C48.1414 179.793 85.5819 188.869 85.5819 188.869C85.5819 188.869 65.2351 219.224 90.3267 242.157Z" fill="#FDE88B" stroke="#83684D" stroke-width="2"/>
<path d="M220 35.4998C206 57.9998 205 79.9999 205 79.9999L217 81L230 83C230 83 230.578 72.0521 239.711 52.1815C248.843 32.3108 256 19.4999 256 19.4999C256 19.4999 234 12.9998 220 35.4998Z" fill="white" fill-opacity="0.25"/>
<path d="M120.982 60.5C152 63 166 93 166 93C166 93 151.5 109 143 128C134.5 147 137.5 161 137.5 161C137.5 161 57 139.5 66.5 128C76 116.5 99.5 110 99.5 110C99.5 110 75.5 102 76.5 87C77.5 72 89.9645 58 120.982 60.5Z" fill="white" fill-opacity="0.25"/>
<circle cx="212" cy="152" r="72.5" stroke="#83684D" stroke-width="5"/>
</svg>
