<svg width="579" height="579" viewBox="0 0 579 579" fill="none" xmlns="http://www.w3.org/2000/svg">
<rect x="159.421" y="124.066" width="350" height="200" rx="100" transform="rotate(45 159.421 124.066)" fill="#E61D21"/>
<path d="M300.843 194.777C339.895 155.724 403.211 155.724 442.264 194.777V194.777C481.316 233.829 481.316 297.146 442.264 336.198L292.357 486.105C277.517 500.945 253.457 500.945 238.617 486.105L194.777 442.264C155.724 403.212 155.724 339.895 194.777 300.843L300.843 194.777Z" fill="#E61D21"/>
<path d="M413 365.5L251.5 495C251.5 495 276 503.5 292.5 486C315.5 464 413 365.5 413 365.5Z" fill="black" fill-opacity="0.25"/>
<path d="M193.636 185.522C193.636 185.522 143.636 155.522 97.1361 202.022C50.636 248.522 85.6361 283.022 85.6361 283.022C85.6361 283.022 86.1364 261.022 125.136 222.022C164.136 183.022 193.636 185.522 193.636 185.522Z" fill="white" fill-opacity="0.25"/>
<path d="M348.001 172.5C305.501 185.753 275.001 234 275.001 234C275.001 234 289.5 244.237 297 247C304.5 249.763 390.501 159.247 348.001 172.5Z" fill="white" fill-opacity="0.25"/>
</svg>
