<svg width="186" height="191" viewBox="0 0 186 191" fill="none" xmlns="http://www.w3.org/2000/svg">
<path d="M9.99955 180L3.49955 142C3.49955 142 -7.49984 55.9999 18 30C43.4999 4.00006 73.4995 -5.4995 95.4995 6.00028C117.5 17.5001 107.5 57.0003 107.5 57.0003C107.5 57.0003 143.5 40.0003 167.5 60.0003C191.5 80.0003 183 117 183 117V155.5C183 155.5 170 177 147 186.5C124 196 9.99955 180 9.99955 180Z" fill="#FF6897"/>
<path d="M3.49955 142L9.99955 180C9.99955 180 124 196 147 186.5C170 177 183 155.5 183 155.5V117M3.49955 142C3.49955 142 -7.49984 55.9999 18 30C43.4999 4.00006 73.4995 -5.4995 95.4995 6.00028C117.5 17.5001 107.5 57.0003 107.5 57.0003C107.5 57.0003 143.5 40.0003 167.5 60.0003C191.5 80.0003 183 117 183 117M3.49955 142C3.49955 142 110 152 138.5 144C167 136 183 117 183 117" stroke="black" stroke-width="2"/>
<path d="M6.50003 142C6.50003 142 -2.01162 63.77 21.6353 39.6907C45.2823 15.6115 69.0986 3.34978 89.5 14C109.901 24.6503 101.5 62.5002 101.5 62.5002C101.5 62.5002 142.744 46.4774 165 65C187.256 83.5226 179 115 179 115C179 115 167.5 140.5 138 145C108.5 149.5 6.50003 142 6.50003 142Z" fill="#B75B75" stroke="black" stroke-width="2"/>
</svg>
