<svg width="191" height="175" viewBox="0 0 191 175" fill="none" xmlns="http://www.w3.org/2000/svg">
<path d="M149 168.654C126 180.154 7.49968 165.654 7.49968 165.654L4.99968 140.654C4.99968 140.654 -8.852 72.585 14.9997 42.1542C37.4348 13.5308 61.4995 -11.3457 101.5 7.65423C118.795 15.8696 111.5 55.6542 111.5 55.6542C111.5 55.6542 156.951 41.8934 174 61.6543C196 87.1543 188 113.654 188 113.654V138.154C188 138.154 172 157.154 149 168.654Z" fill="#D32556"/>
<path d="M188 113.654V138.154C188 138.154 172 157.154 149 168.654C126 180.154 7.49968 165.654 7.49968 165.654L4.99968 140.654M188 113.654C188 113.654 168 138.154 149 146.654C130 155.154 4.99968 140.654 4.99968 140.654M188 113.654C188 113.654 196 87.1543 174 61.6543C156.951 41.8934 111.5 55.6542 111.5 55.6542C111.5 55.6542 118.795 15.8696 101.5 7.65423C61.4995 -11.3457 37.4348 13.5308 14.9997 42.1542C-8.852 72.585 4.99968 140.654 4.99968 140.654" stroke="black" stroke-width="2"/>
<path d="M37.6465 72.3229L10.5 50C10.5 50 13.2986 43.759 16 40C18.4991 36.5224 23.5 31.5 23.5 31.5L51.2642 53.3871L87.5 3C87.5 3 100.024 5.76233 105 11C108.921 15.1271 110.5 22.5 110.5 22.5L70.6868 68.6983L160.5 139.5L148.5 147.5L131.5 149.5L55.1553 86.7207L4.5 145.5L3 120.5L37.6465 72.3229Z" fill="#F68AB1"/>
<path d="M10.5 50L131.5 149.5L148.5 147.5L160.5 139.5L23.5 31.5C23.5 31.5 18.4991 36.5224 16 40C13.2986 43.759 10.5 50 10.5 50ZM3 120.5L87.5 3C87.5 3 100.024 5.76233 105 11C108.921 15.1271 110.5 22.5 110.5 22.5L4.5 145.5L3 120.5Z" stroke="black" stroke-width="2"/>
<path d="M115.501 117.5C79.5942 141.724 7.00002 140.5 7.00002 140.5C7.00002 140.5 -13.9994 66.9999 29.0002 26.4998C47.1989 9.35904 69.5002 -6.25018 96.0001 6.99979C120.5 16 110.001 57.0004 110.001 57.0004C110.001 57.0004 150.99 45.0755 167 57.0004C173 61.4692 141.223 100.148 115.501 117.5Z" fill="white" fill-opacity="0.25"/>
<path d="M62.5366 73.1499C61 78 56.0946 81.8154 49.5368 78.7294C44.2634 76.2477 42.2618 73.5736 42.2183 70.2295C42.2183 70.2295 32.5324 77.7295 23.5345 76.2295C15.8641 74.9509 -0.0301657 68.8576 4.03662 62.2295C4.03662 62.2295 2.77801 53.7049 3.03447 48.2296C3.36056 41.2677 3.61033 37.0652 6.53447 30.7297C9.53447 24.2299 13.6558 18.3777 25.5345 22.2298C44.0368 28.2298 49.5368 58.048 49.5368 58.048C53.558 56.2294 58.0368 56.2294 58.0368 56.2294C58.0368 56.2294 60.0136 57.8108 61.7345 60.2295C61.7345 60.2295 70.7148 44.1646 82.0366 34.7296C88.0366 29.7296 96.9585 24.7982 103.037 27.2295C110.537 30.2295 111.262 39.542 111.537 47.2296C112.037 61.2296 105.037 74.7295 105.037 74.7295C105.439 83.4962 90.5366 84.7295 80.0366 83.2295C70.937 81.9295 62.5366 73.1499 62.5366 73.1499Z" fill="#F889B1"/>
<path d="M62.5366 73.1499C63.2032 71.7152 63.6995 70.1907 64.0368 68.7294C64.7667 65.5664 63.3656 62.5219 61.7345 60.2295M62.5366 73.1499C61 78 56.0946 81.8154 49.5368 78.7294C44.2634 76.2477 42.2618 73.5736 42.2183 70.2295M62.5366 73.1499C62.5366 73.1499 73.4148 66.7661 82.5366 66.2295C91.0367 65.7295 104.651 66.3262 105.037 74.7295M62.5366 73.1499C62.5366 73.1499 70.937 81.9295 80.0366 83.2295C90.5366 84.7295 105.439 83.4962 105.037 74.7295M105.037 74.7295C105.037 74.7295 112.037 61.2296 111.537 47.2296C111.262 39.542 110.537 30.2295 103.037 27.2295C96.9585 24.7982 88.0366 29.7296 82.0366 34.7296C70.7148 44.1646 61.7345 60.2295 61.7345 60.2295M61.7345 60.2295C60.0136 57.8108 58.0368 56.2294 58.0368 56.2294C58.0368 56.2294 53.558 56.2294 49.5368 58.048M42.2183 70.2295C42.1917 68.1834 42.8981 65.8865 44.0368 63.2294C45.1225 60.696 47.256 59.0795 49.5368 58.048M42.2183 70.2295C42.2183 70.2295 34.0364 61.2295 21.0364 59.2295C15.0041 58.3015 7.22851 57.0274 4.03662 62.2295M42.2183 70.2295C42.2183 70.2295 32.5324 77.7295 23.5345 76.2295C15.8641 74.9509 -0.0301657 68.8576 4.03662 62.2295M4.03662 62.2295C4.03662 62.2295 2.77801 53.7049 3.03447 48.2296C3.36056 41.2677 3.61033 37.0652 6.53447 30.7297C9.53447 24.2299 13.6558 18.3777 25.5345 22.2298C44.0368 28.2298 49.5368 58.048 49.5368 58.048" stroke="black" stroke-width="2"/>
<path d="M4 126L18.5 111.5M4 130L28 106M140.5 148L122 129.5M150.5 145.5L126.5 121.5M94.5 58.9999C94.5 58.9999 90.25 55.4999 83 55.4999C75.75 55.4999 63.5 62.9999 63.5 62.9999M94.5 62.9999C94.5 62.9999 90.25 59.4999 83 59.4999C75.75 59.4999 63.5 66.9999 63.5 66.9999M20.5 45.5C20.5 45.5 31.5 43.5 37.5 49.9999C43.5 56.4999 45.5 59.9999 45.5 59.9999M18 51.4999C18 51.4999 24 49 31 53.9999C38 58.9999 43 64.4999 43 64.4999" stroke="black" stroke-width="2" stroke-linecap="round"/>
</svg>
